<svg width="400" height="400" viewBox="0 0 400 400" fill="none" xmlns="http://www.w3.org/2000/svg">
<path d="M303.892 166.858C295.29 167.686 287.153 166.545 278.976 163.036C280.554 166.263 281.442 169.338 282.129 172.49C284.056 181.318 282.433 189.214 275.801 195.6C270.132 201.059 263.07 202.575 255.436 201.886C244.003 200.855 234.983 194.876 226.566 187.689C226.022 187.225 225.371 186.843 224.945 186.288C221.416 181.692 216.507 179.439 211.133 177.816C208.974 177.164 206.952 176.016 205.391 174.269C204.773 173.577 203.873 173.564 203.099 173.266C195.025 170.156 187.889 165.424 180.818 160.547C174.477 156.171 168.697 151.21 163.286 145.703C160.511 142.879 156.777 140.997 153.483 138.681C147.845 134.715 142.179 130.785 135.692 128.288C131.413 126.641 126.978 125.711 122.362 125.863C122.058 125.873 121.759 125.999 121.151 126.144C123.06 129.045 122.017 131.538 120.342 133.935C120.063 134.335 119.934 134.769 120.094 135.226C122.321 141.564 121.549 148.181 121.867 154.689C122.164 160.766 122.884 166.725 125.545 172.283C127.003 175.329 128.577 177.124 131.63 179.474C132.651 177.47 133.461 175.313 135.514 174.08C135.713 173.961 135.82 173.489 135.782 173.205C134.505 163.54 139.758 156.97 146.263 150.977C146.781 150.499 147.316 149.963 147.625 149.346C150.055 144.484 156.18 144.076 159.9 145.578C166.176 148.113 169.635 153.17 171.778 159.268C173.165 163.216 173.381 167.292 171.919 171.286C169.996 176.541 166.073 179.566 160.73 180.872C159.919 181.07 159.05 181.044 158.182 181.604C159.135 182.577 160.347 183.326 160.708 184.694C161.075 186.086 160.533 187.367 159.966 188.954C162.525 188.624 164.501 187.415 166.468 186.312C171.016 183.76 174.966 180.322 179.298 177.443C181.665 175.869 184.246 174.928 187.018 174.415C187.861 174.259 188.857 174.352 189.136 175.024C190.073 177.29 192.039 176.671 193.711 176.909C194.729 177.054 196.37 176.554 196.319 178.096C196.273 179.506 194.685 178.901 193.739 178.989C192.835 179.073 191.918 179.015 191.006 179.01C190.078 179.005 189.731 179.587 189.712 180.384C189.693 181.162 190.174 181.548 190.933 181.622C192.098 181.736 193.262 181.855 194.425 181.985C194.966 182.045 195.529 182.2 195.547 182.842C195.569 183.655 194.885 183.708 194.298 183.728C193.323 183.761 192.334 183.835 191.372 183.719C189.856 183.537 189.435 184.307 189.369 185.62C189.296 187.083 190.394 186.868 191.237 186.982C191.879 187.068 192.545 186.982 193.182 187.085C194.064 187.227 194.64 187.787 194.472 188.712C194.298 189.667 193.484 189.643 192.761 189.468C191.935 189.267 191.119 189.079 190.261 189.11C189.591 189.134 188.886 189.108 188.838 190.033C188.797 190.838 189.415 190.889 190.01 191.037C190.888 191.256 191.754 191.546 192.597 191.877C193.022 192.045 193.381 192.395 193.285 192.934C193.187 193.483 192.631 193.778 192.271 193.659C189.391 192.71 187.247 194.71 184.775 195.401C182.495 196.038 180.112 195.706 177.777 195.84C177.276 195.869 176.784 196.047 175.983 196.224C177.554 198.358 179.749 199.143 181.804 199.752C184.836 200.65 187.979 201.068 191.21 201.148C194.692 201.235 196.656 199.645 198.103 196.795C199.071 194.888 199.991 192.936 201.644 191.461C203.709 189.617 204.866 189.548 207.402 190.593C209.255 191.356 211.132 192.065 212.956 192.903C213.558 193.179 214.265 193.462 213.924 194.301C213.617 195.056 212.88 195.049 212.243 194.805C210.558 194.16 208.866 193.554 207.023 193.17C206.457 194.825 207.303 195.588 208.615 195.971C210.316 196.469 211.817 197.384 213.396 198.133C214.076 198.455 214.515 199.016 214.281 200.058C211.956 200.298 210.115 198.608 207.824 198.286C207.642 199.789 207.709 200.907 209.551 201.34C211.045 201.692 212.433 202.481 213.89 203.014C214.573 203.264 215.163 203.601 214.974 204.374C214.752 205.279 213.977 204.873 213.351 204.888C211.903 204.922 210.753 203.697 209.169 203.921C209.268 205.52 209.988 206.472 211.489 206.911C212.543 207.22 213.567 207.645 214.58 208.076C215.3 208.383 215.812 208.972 215.513 209.773C215.171 210.693 214.483 210.116 213.869 210.015C212.696 209.823 211.768 208.579 210.625 208.895C209.369 209.242 209.668 210.847 209.033 211.816C206.256 216.056 198.659 218.717 193.15 217.37C189.986 216.597 186.929 215.618 183.85 214.251C184.473 215.005 185.072 215.781 185.723 216.51C191.694 223.199 196.219 230.851 200.429 238.703C200.902 239.586 201.056 240.674 201.207 241.69C201.678 244.839 204.005 247.054 205.231 249.824C205.895 251.324 205.894 252.59 205.221 254.091C204.315 256.111 203.328 257.98 201.72 259.577C200.359 260.929 199.362 261.062 198.367 259.38C197.779 258.385 197.412 257.259 196.936 256.171C196.729 256.16 196.498 256.074 196.364 256.153C195.415 256.714 194.441 257.124 193.516 256.205C192.697 255.391 192.867 254.368 193.333 253.476C194.119 251.968 193.656 251.232 192.265 250.255C186.612 246.285 182.233 240.995 178.079 235.567C175.434 232.111 172.361 229.696 167.99 228.887C165.177 228.366 162.692 226.84 160.211 225.472C159.608 225.906 159.845 226.469 159.833 226.951C159.674 233.331 159.777 239.697 160.962 245.997C161.656 249.684 162.619 253.313 163.22 257.028C163.53 258.948 163.571 260.949 162.505 262.285C160.473 264.831 161.271 267.454 161.54 270.097C161.666 271.329 161.809 272.552 161.776 273.787C161.589 280.941 162.677 288.058 162.382 295.214C162.343 296.158 162.811 296.719 163.651 297.199C168.669 300.07 173.742 302.829 178.972 305.299C179.651 305.62 180.208 305.822 180.984 305.535C184.239 304.332 187.034 305.669 187.888 309.032C188.383 310.98 189.032 311.609 191.186 311.153C194.38 310.476 197.648 310.883 200.871 311.529C203.087 311.974 203.218 313.785 203.532 315.372C203.798 316.715 204.041 318.157 202.247 319.027C200.673 319.79 201.142 321.162 202.118 322.097C205.464 325.303 204.045 329.172 203.435 332.734C203.022 335.142 198.145 335.852 195.794 334.128C194.123 332.904 192.99 331.239 192.133 329.395C191.706 328.476 191.122 327.723 190.343 327.122C188.132 325.417 187.684 325.439 186.021 327.616C183.804 330.517 180.609 330.819 178.515 328.521C177.414 327.314 175.657 327.304 174.178 326.969C167.272 325.406 160.506 323.412 153.933 320.781C149.708 319.089 145.555 317.227 141.9 314.462C138.822 312.134 136.863 308.919 135.086 305.562C131.5 298.789 131.071 291.287 130.01 283.931C129.528 280.587 129.19 277.222 128.713 273.877C128.564 272.836 127.975 271.947 127.213 271.194C124.575 268.594 121.713 266.211 119.51 263.188C119.19 262.75 118.721 262.14 118.072 262.719C117.472 263.255 117.702 263.939 118.081 264.499C119.692 266.879 121.491 269.132 123.736 270.921C125.858 272.613 126.916 274.567 127.122 277.357C127.541 283.054 127.944 288.811 129.166 294.365C129.877 297.595 128.887 299.728 127.232 302.002C126.356 303.205 126.117 304.372 126.268 305.947C127.141 315.057 128.707 324.105 128.922 333.268C128.971 335.328 130.377 336.547 131.08 338.177C132.279 340.956 131.791 343.374 130.216 345.725C128.481 348.314 128.253 350.68 130.358 353.049C133.304 356.363 132.948 360.428 133.423 364.274C133.688 366.42 131.492 366.964 129.924 367.665C128.697 368.213 127.532 368.774 126.555 366.931C125.868 365.634 124.869 366.68 124.239 367.415C123.545 368.226 123.317 369.409 121.998 369.684C119.331 370.241 116.693 371.301 113.937 370.651C111.553 370.089 110.132 365.246 111.443 362.687C112.17 361.267 113.165 360.108 114.512 359.23C115.88 358.339 116.628 357.125 116.208 355.419C116.002 354.585 116.398 353.9 116.726 353.191C117.377 351.782 117.275 350.756 115.531 350.206C111.749 349.012 110.282 345.891 110.206 342.385C110.15 339.781 109.149 337.797 107.983 335.705C105.013 330.381 102.733 324.793 100.947 318.941C99.0412 312.693 97.9438 306.328 97.4067 299.88C96.9552 294.46 97.1661 289.008 97.766 283.571C98.2791 278.922 98.9981 274.321 99.9398 269.743C100.659 266.246 101.54 262.794 102.552 259.375C103.232 257.079 103.959 254.797 104.707 252.523C104.903 251.928 104.763 251.499 104.332 251.135C101.21 248.495 101.499 245.124 102.271 241.639C103.856 234.479 105.29 227.283 107.053 220.168C108.735 213.383 110.723 206.669 113.604 200.268C114.146 199.064 114.128 198.093 113.163 197.085C107.509 191.183 104.253 184.108 102.828 176.095C101.355 167.811 101.492 159.573 102.812 151.276C103.375 147.741 104.046 144.256 104.914 140.79C105.176 139.742 105.761 138.954 106.651 137.714C98.885 142.792 91.4066 147.386 86.4316 154.929C83.8296 158.874 82.2812 163.284 80.9399 167.753C78.2268 176.793 73.5599 184.595 66.6592 191.048C66.0708 191.598 65.3573 192.263 64.6432 191.587C63.8086 190.797 64.7419 190.155 65.2488 189.66C69.4153 185.593 73.0347 181.136 75.5183 175.815C76.9178 172.818 77.9179 169.682 78.9195 166.544C81.1259 159.632 83.6065 152.881 89.1316 147.765C91.7583 145.333 94.593 143.172 97.4266 140.942C94.8679 141.591 92.4356 142.494 90.3846 144.285C88.1413 146.244 86.4776 148.617 85.1468 151.26C84.8267 151.896 84.6186 153.046 83.5974 152.599C82.6178 152.171 82.9533 151.066 83.2558 150.332C85.5793 144.694 89.356 140.606 95.4278 138.891C97.4505 138.319 99.5449 137.841 101.355 136.626C98.4614 136.92 95.706 137.741 93.0206 138.787C87.0183 141.126 81.7249 144.405 78.4319 150.203C77.5993 151.669 76.8498 153.184 76.6428 154.907C76.5339 155.813 76.1012 156.708 75.0759 156.507C73.8054 156.257 74.3908 155.256 74.5501 154.451C76.1579 146.327 81.7895 141.709 88.6688 138.146C93.6829 135.548 99.1709 134.473 104.564 133.081C106.915 132.474 108.912 131.236 110.753 129.739C110.567 129.419 110.53 129.27 110.435 129.206C107.718 127.363 107.579 125.32 110.036 123.111C110.817 122.408 111.666 122.073 112.706 122.603C114.168 123.348 115.196 122.846 116.25 121.632C119.033 118.426 122.724 116.89 126.803 115.87C131.565 114.679 136.402 115.461 141.156 114.825C143.649 114.491 146.139 113.973 148.045 112.037C148.727 111.344 149.109 110.636 149.143 109.65C149.306 104.933 150.727 100.624 153.652 96.8997C156.752 92.9539 160.887 90.4869 165.598 88.9181C166.381 88.6576 167.212 88.5138 168.027 87.8539C164.537 86.0179 161.903 83.3656 159.686 80.2982C157.846 77.752 156.577 74.9442 155.841 71.8535C155.249 69.3687 155 66.9021 154.949 64.3516C154.797 56.7433 157.843 50.4859 162.856 45.0526C168.373 39.0728 175.27 35.3815 182.954 32.8769C188.391 31.1047 193.987 30.3356 199.596 30.1259C204.031 29.96 208.488 30.7389 212.896 31.7377C219.426 33.2178 225.22 36.0917 230.566 39.9818C232.99 41.7461 235.084 43.8949 237.045 46.1666C237.413 46.5929 237.685 47.1635 238.465 47.2707C239.432 45.4089 240.389 43.5146 241.661 41.796C244.432 38.0509 248.296 35.8433 252.44 34.0483C257.056 32.0486 261.829 30.9427 266.926 30.6594C274.92 30.2151 282.397 31.7297 289.749 34.7325C300.652 39.1852 309.476 46.2242 316.255 55.7454C320.194 61.2781 322.776 67.4368 324.059 74.2404C325.076 79.6342 325.023 84.9282 323.674 90.0645C321.738 97.4381 317.876 103.669 310.684 107.219C310.459 107.33 310.277 107.528 309.994 107.749C310.656 109.041 312.08 109.255 313.084 109.962C319.389 114.406 324.591 119.805 327.335 127.102C331.077 137.055 331.195 146.875 324.611 155.832C320.708 161.142 315.273 164.349 308.813 165.8C307.233 166.155 305.729 166.855 303.892 166.858ZM166.34 145.572C173.585 153.102 181.54 159.496 191.903 162.327C200.271 164.613 208.605 165.07 216.756 161.84C225.351 158.435 230.205 151.974 231.037 142.663C231.563 136.784 229.93 131.315 227.515 126.091C223.102 116.545 216.708 108.361 209.412 100.879C202.123 93.4029 193.535 88.7734 182.757 88.6211C174.558 88.5051 166.71 89.3939 159.683 94.0146C151.238 99.5679 150.359 108.372 152.278 116.409C152.956 119.251 152.49 120.513 150.523 122.07C149.713 122.711 148.772 123.183 147.93 123.788C146.478 124.83 144.575 124.837 142.728 125.976C145.678 126.64 147.998 128.021 150.733 128.153C153.09 128.267 154.745 129.463 155.991 131.591C158.885 136.532 162.306 141.119 166.34 145.572ZM290.189 37.3738C285.366 34.9948 280.21 33.5198 274.927 33.0036C267.715 32.2989 260.525 32.7959 253.738 35.7997C248.448 38.1412 243.878 41.3189 241.216 46.684C240.321 48.4876 240.078 50.029 241.387 52.0232C245.047 57.6024 247.465 63.8023 248.684 70.3574C249.06 72.379 249.995 73.1686 251.633 73.9176C265.061 80.0579 274.827 89.69 279.808 103.802C280.22 104.966 280.879 105.16 281.9 104.715C284.319 103.664 286.949 103.429 289.49 103.224C294.717 102.802 299.814 103.795 304.702 105.702C306.369 106.353 307.83 106.421 309.512 105.518C316.839 101.58 320.436 95.0596 321.714 87.2742C323.122 78.6948 321.441 70.4161 317.433 62.7243C311.418 51.1794 302.289 42.8721 290.189 37.3738ZM213.765 74.4532C214.059 74.316 214.367 74.2027 214.645 74.0382C223.624 68.7211 233.147 68.2876 243.012 70.8596C244.039 71.1274 245.083 71.3296 246.173 71.5742C246.098 68.0008 244.846 64.8573 243.686 61.833C241.43 55.9502 238.409 50.4794 233.72 45.9794C226.138 38.7012 217.285 34.0397 206.874 33.0176C196.392 31.9885 186.095 33.2171 176.493 38.018C166.206 43.1616 158.898 50.6178 157.743 62.695C156.852 72.0003 160.259 79.4007 167.702 85.0405C170.248 86.9696 172.823 87.2865 175.916 86.5347C181.402 85.2012 186.848 86.194 192.219 87.5847C195.106 88.3325 197.81 89.5549 200.641 90.9931C202.14 87.6818 203.726 84.5692 205.878 81.7964C208.049 78.9993 210.669 76.6778 213.765 74.4532ZM269.419 90.151C260.937 80.7215 250.667 74.3001 238.041 72.2871C229.317 70.8962 221.014 72.1543 213.567 77.497C209.043 80.7423 206.536 85.3807 203.812 89.9668C202.739 91.7726 203.082 92.643 204.675 93.8668C213.331 100.519 220.209 108.763 225.946 118.017C228.769 122.572 230.906 127.417 232.534 132.499C232.859 133.513 233.336 133.994 234.473 133.936C236.679 133.823 238.893 133.875 241.103 133.806C247.128 133.618 252.827 134.829 258.139 137.718C258.753 138.052 259.295 138.169 259.97 137.841C263.369 136.194 266.678 134.411 269.594 131.974C278.228 124.758 280.559 114.421 277.489 104.361C275.889 99.1192 273.071 94.5527 269.419 90.151ZM278.438 168.601C278.188 167.798 277.998 166.969 277.676 166.195C275.364 160.648 272.356 155.488 268.723 150.713C265.319 146.241 261.56 142.154 256.398 139.57C249.473 136.105 242.059 136.32 234.642 136.435C233.647 136.451 233.272 136.96 233.436 137.966C234.099 142.051 233.379 145.967 231.948 149.797C229.016 157.646 223.133 162.292 215.413 164.802C213.754 165.341 213.575 165.906 214.364 167.238C214.625 167.679 214.773 168.191 214.945 168.681C215.703 170.842 215.247 171.829 213.117 172.77C212.067 173.234 211.041 173.749 209.815 174.331C210.931 175.222 211.959 175.741 213.136 176.132C216.066 177.104 219.297 177.513 221.579 179.869C225.622 184.044 230.032 187.782 234.801 191.079C243.396 197.022 252.527 200.878 263.399 199.201C270.27 198.142 277.397 192.471 279.162 185.755C280.654 180.08 280.454 174.45 278.438 168.601ZM280.072 120.845C276.926 129.945 270.197 135.643 261.707 139.741C262.088 140.212 262.248 140.499 262.485 140.691C267.931 145.094 272.15 150.559 275.341 156.693C276.971 159.826 279.552 161.038 282.431 161.878C290.002 164.085 297.634 165.608 305.641 164.071C310.067 163.222 314.229 161.931 317.793 159.229C326.742 152.445 328.226 142.901 326.483 132.755C324.879 123.417 319.147 116.51 311.226 111.528C302.66 106.139 293.38 104.359 283.416 106.675C280.793 107.284 280.902 107.214 281.206 109.782C281.638 113.426 281.416 117.049 280.072 120.845ZM153.811 202.816C152.472 202.845 151.274 202.313 150.042 201.895C146.02 200.533 146.032 200.552 143.915 204.251C139.077 212.706 137.533 222.009 137.182 231.532C136.868 240.045 137.25 248.545 138.751 256.978C139.459 260.952 139.673 261.4 143.588 262.119C143.843 262.166 144.09 262.254 144.342 262.317C148.805 263.44 153.3 263.715 157.838 262.827C158.987 262.603 159.78 262.063 160.295 260.891C160.94 259.424 160.94 257.972 160.649 256.507C159.643 251.432 158.232 246.438 157.846 241.242C157.506 236.655 156.581 232.108 157.307 227.466C157.656 225.234 157.482 223.062 155.394 221.512C154.844 221.103 154.484 220.417 154.1 219.817C153.847 219.422 153.764 218.935 154.164 218.561C154.667 218.091 155.127 218.374 155.534 218.74C155.824 219 156.1 219.282 156.344 219.585C159.147 223.076 162.949 225.008 167.152 226.046C172.251 227.304 176.476 229.644 179.66 233.949C182.248 237.446 185.194 240.675 187.92 244.072C189.023 245.446 190.234 245.836 191.835 245.067C194.243 243.91 196.128 242.167 197.635 239.989C198.058 239.376 197.915 238.811 197.579 238.174C194.147 231.66 190.155 225.524 185.548 219.771C180.184 213.073 174.505 206.755 166.349 203.374C164.381 202.558 162.459 200.939 160.1 201.994C158.178 202.854 156.191 202.85 153.811 202.816ZM109.202 221.879C109.042 222.574 108.87 223.266 108.725 223.964C107.962 227.644 107.232 231.33 106.438 235.003C105.672 238.548 104.738 242.06 104.397 245.683C104.268 247.057 104.684 248.248 105.81 249.138C108.487 251.255 111.648 252.342 114.703 253.611C115.252 252.9 115.112 252.298 115.154 251.729C115.642 245.067 115.275 238.384 115.885 231.711C116.523 224.731 118.261 218.034 120.454 211.463C123.418 202.581 127.597 194.209 132.061 185.988C133.302 183.702 133.211 183.345 130.894 181.946C128.46 180.476 126.523 178.517 124.906 176.181C120.337 169.578 119.641 161.938 119.107 154.3C118.831 150.348 118.983 146.362 119.05 142.393C119.078 140.748 118.496 139.961 116.82 139.961C114.283 139.96 111.744 139.932 109.208 139.842C108.068 139.802 107.681 140.335 107.343 141.354C106.685 143.341 106.443 145.417 106.06 147.435C104.555 155.368 103.97 163.357 104.701 171.464C105.449 179.77 108.109 187.249 113.095 193.908C113.69 194.703 114.204 195.675 115.452 195.892C116.566 193.881 117.647 191.9 118.759 189.935C119.1 189.332 119.468 188.46 120.354 189.078C121.089 189.591 120.721 190.293 120.348 190.974C118.141 195.01 116.235 199.184 114.671 203.513C112.532 209.429 110.757 215.454 109.202 221.879ZM146.964 154.602C147.093 154.618 147.228 154.616 147.351 154.652C148.585 155.013 150.06 155.579 149.499 157.052C148.925 158.561 147.813 157.189 146.911 156.934C145.443 156.518 144.087 156.061 142.829 157.77C139.538 162.246 137.388 166.996 137.868 172.714C137.976 174.012 138.426 174.893 139.417 175.652C142.543 178.047 146.215 179.077 149.955 179.953C152.232 180.487 154.101 180.122 155.302 177.813C155.899 176.667 156.889 176.271 158.267 176.795C159.242 177.166 160.324 176.959 161.244 176.315C161.978 175.8 162.584 175.183 162.307 174.22C162.05 173.331 161.363 172.831 160.421 172.783C159.578 172.741 158.731 172.759 157.887 172.735C157.422 172.722 156.95 172.652 156.718 172.182C156.437 171.611 156.775 171.176 157.148 170.803C157.514 170.437 157.917 170.105 158.326 169.785C160.791 167.853 161.551 165.305 160.92 162.327C159.71 156.626 156.05 153.367 150.499 152.038C148.793 151.63 146.877 152.555 146.248 154.153C146.123 154.47 146.449 154.557 146.964 154.602ZM206.934 204.949C205.363 200.834 204.632 196.563 205.003 191.861C203.325 192.705 202.492 193.668 201.851 194.819C201.125 196.124 200.446 197.456 199.688 198.741C198.074 201.478 195.716 203.451 192.538 203.545C185.78 203.747 179.355 202.504 174.081 197.781C173.646 197.391 173.222 196.785 172.604 196.996C170.099 197.852 167.415 198.319 165.212 200.028C166.129 200.997 167.298 201.107 168.273 201.605C173.845 204.452 178.663 208.497 184.133 211.498C189.998 214.716 196.031 216.5 202.713 214.026C207.092 212.405 208.535 209.647 206.934 204.949ZM156.643 200.158C158.615 200.066 160.574 199.703 162.253 198.711C169.054 194.693 176.519 193.313 184.255 192.978C185.622 192.919 186.112 192.477 186.34 191.074C186.989 187.076 186.915 183.048 187.166 179.034C187.291 177.034 186.864 176.526 184.95 177.178C182.79 177.913 180.783 178.964 178.943 180.348C173.238 184.638 167.67 189.083 160.667 191.313C156.114 192.762 151.829 193.867 147.58 190.654C146.666 189.962 145.51 189.573 144.438 189.111C143.543 188.725 142.608 188.518 141.699 189.059C142.306 195.637 149.09 200.783 156.643 200.158ZM120.582 220.195C119.611 222.362 119.813 224.79 119.072 227.01C118.866 227.627 119.334 227.958 119.733 228.294C123.628 231.581 128.141 233.552 133.098 234.583C133.689 234.706 134.138 234.586 134.244 233.905C134.756 230.603 134.965 227.285 135.037 223.897C130.018 223.434 125.437 222.47 121.551 219.455C120.89 218.943 120.827 219.539 120.582 220.195ZM143.659 186.554C145.587 186.964 147.324 187.807 149.005 188.815C150.284 189.583 151.632 190.228 153.095 190.594C155.21 191.123 157.138 189.871 157.935 187.444C158.685 185.156 158.261 184.413 155.664 183.425C154.807 183.1 153.936 182.891 153.013 182.85C150.297 182.731 147.568 182.704 144.871 182.397C142.908 182.174 140.871 182.027 139.091 180.968C138.572 180.659 138.014 180.303 138.385 179.602C138.685 179.033 139.264 179.215 139.781 179.322C140.393 179.45 140.874 180.051 141.666 179.825C140.243 178.871 138.88 177.951 137.51 177.041C136.595 176.433 135.821 176.518 135.201 177.5C133.457 180.264 134.937 184.194 138.098 185.089C139.84 185.583 141.604 186.003 143.659 186.554ZM125.809 203.693C125.282 204.834 124.712 205.931 126.158 206.913C129.474 209.164 133.012 210.783 137.07 211.09C137.747 211.141 138.284 210.907 138.538 210.361C139.591 208.099 140.577 205.807 141.696 203.28C136.674 202.502 132.706 200.018 128.991 197C128.7 197.344 128.481 197.512 128.382 197.733C127.539 199.618 126.717 201.513 125.809 203.693ZM122.647 212.625C121.02 216.875 121.23 217.365 125.44 219.159C125.678 219.26 125.89 219.428 126.133 219.512C128.704 220.4 131.265 221.339 134.071 221.019C134.781 220.938 135.636 221.052 135.765 220.101C135.977 218.54 136.552 217.088 136.937 215.58C137.255 214.334 136.986 213.502 135.441 213.27C134.182 213.082 132.923 212.78 131.695 212.275C129.059 211.19 126.561 209.884 124.157 208.087C123.62 209.653 123.162 210.986 122.647 212.625ZM127.231 337.798C123.077 339.287 118.956 340.896 114.422 340.771C113.685 340.751 113 341.045 112.698 341.82C111.783 344.164 114.078 347.762 116.6 347.958C119.739 348.202 122.609 347.124 125.498 346.147C127.864 345.348 129.15 343.889 129.121 341.511C129.104 340.153 129.504 338.377 127.231 337.798ZM124.259 118.992C125.543 118.977 126.786 118.701 128.109 118.794C131.574 119.038 134.707 120.247 137.553 122.027C141.207 124.312 146.924 122.899 149.843 119.907C150.248 119.491 150.882 118.976 150.575 118.431C149.806 117.069 150.18 115.349 149.141 113.976C146.675 115.559 144.252 116.882 141.243 116.954C136.782 117.061 132.328 117.476 127.87 117.745C126.518 117.827 125.283 118.271 124.259 118.992ZM193.157 325.959C193.492 326.309 193.742 326.001 193.993 325.836C194.676 325.388 195.413 324.489 196.196 325.292C197.14 326.26 195.961 326.905 195.445 327.544C194.829 328.309 194.367 329.073 194.899 330.013C195.593 331.238 196.283 332.966 197.879 332.641C199.362 332.339 199.101 330.453 199.01 329.323C198.622 324.483 197.876 319.674 197.693 314.813C197.673 314.283 197.513 313.87 196.975 313.838C195.072 313.726 193.159 313.578 190.963 314.005C193.717 318.058 193.89 321.385 188.76 323.311C190.388 324.386 190.403 324.409 191.866 323.432C192.517 322.997 193.161 322.679 193.774 323.339C194.336 323.945 193.938 324.539 193.533 325.083C193.38 325.288 193.266 325.521 193.157 325.959ZM124.347 123.375C132.305 123.747 139.265 126.959 145.849 131.098C150.108 133.775 154.214 136.695 158.539 139.607C156.756 136.947 155.054 134.447 153.401 131.914C152.923 131.181 152.302 130.936 151.472 130.834C149.278 130.563 147.101 130.06 145.089 129.193C142.051 127.883 139.165 126.536 136.493 124.218C133.119 121.291 128.425 120.489 123.777 121.397C121.715 121.799 119.609 122.161 117.686 124.133C120.095 123.97 121.992 123.124 124.347 123.375ZM120.735 231.851C120.097 231.583 119.754 230.764 118.8 230.879C118.146 231.967 118.697 233.283 118.307 234.429C117.86 235.744 118.459 236.418 119.549 237.092C123.53 239.552 127.892 240.906 132.437 241.778C133.37 241.957 134.441 242.364 134.681 240.817C134.965 238.988 134.106 236.968 132.896 236.84C128.453 236.37 124.585 234.497 120.735 231.851ZM129.518 355.949C128.549 354.217 127.834 355.083 126.973 356.114C124.681 358.855 122.352 358.713 120.309 355.803C119.958 355.303 119.865 354.553 118.94 354.385C118.73 355.817 118.479 357.146 119.751 358.295C120.24 358.737 120.915 359.374 120.408 360.144C119.871 360.96 119.163 360.493 118.523 360.14C118.193 359.958 117.824 359.714 117.518 360.254C117.58 361.098 119.178 361.583 118.34 362.547C117.535 363.474 116.706 362.62 115.97 362.101C115.435 361.723 114.984 361.95 114.585 362.349C113.646 363.288 113.379 364.385 113.724 365.661C116.616 365.4 119.264 364.536 121.945 363.866C124.651 363.189 127.091 361.703 129.822 361.042C130.591 360.856 130.954 360.274 130.561 359.565C129.972 358.499 130.187 357.257 129.518 355.949ZM185.8 314.594C185.674 312.792 186.078 310.958 185.36 309.189C184.797 307.802 183.751 307.292 182.407 307.599C180.916 307.939 181.354 309.2 181.518 310.17C181.739 311.473 181.696 312.739 181.535 314.044C181.073 317.777 181.011 321.563 179.871 325.199C179.576 326.138 180.072 326.808 180.857 327.323C181.657 327.847 182.334 327.591 183.002 327.087C184.082 326.271 184.869 325.213 185.016 323.873C185.342 320.91 185.547 317.934 185.8 314.594ZM211.792 170.612C213.98 169.42 211.814 168.157 211.772 166.948C211.737 165.932 210.757 165.886 209.796 166.06C206.795 166.601 203.811 166.94 200.714 166.505C197.725 166.085 194.742 165.729 191.81 164.895C195.021 166.975 198.323 168.835 201.792 170.409C205.017 171.872 208.209 172.921 211.792 170.612ZM131.489 247.984C135.041 248.041 134.974 248.02 135.056 246.034C135.146 243.87 133.506 244.025 132.274 243.928C128.672 243.646 125.386 242.421 122.103 241.036C120.845 240.506 119.879 239.24 118.236 239.353C118.154 240.807 117.431 242.35 118.971 243.33C122.697 245.701 126.592 247.696 131.489 247.984ZM130.81 195.606C133.758 198.031 137.082 199.743 140.75 200.774C143.077 201.427 143.529 201.169 144.544 198.829C143.042 196.805 141.229 195.338 138.699 194.611C136.237 193.903 134.176 192.244 132.125 190.811C131.139 191.77 130.98 192.948 130.311 193.82C129.78 194.512 129.964 194.999 130.81 195.606ZM198.469 248.304C196.764 249.541 195.549 251.021 195.986 253.372C199.578 252.284 198.605 256.093 200.137 257.383C200.453 255.977 199.242 254.841 199.744 253.415C201.362 253.398 201.34 254.864 201.93 255.839C202.428 254.891 201.954 254.19 201.746 253.49C201.554 252.84 200.804 252.293 201.313 251.528C202.001 250.493 202.569 252.19 203.328 251.663C202.983 249.608 201.915 247.969 200.663 246.408C199.719 246.783 199.304 247.576 198.469 248.304ZM123.979 355.638C125.399 355.2 126.029 353.882 126.874 352.869C127.721 351.854 126.605 348.898 125.523 349.045C123.805 349.278 122.104 349.713 120.434 350.195C119.715 350.403 119.388 351.205 120.004 351.733C121.38 352.912 122.007 354.789 123.979 355.638ZM133.366 188.901C135.261 190.574 137.449 191.748 139.784 192.803C139.649 189.088 138.248 187.372 134.286 186.123C133.968 186.972 133.26 187.662 133.366 188.901ZM117.031 129.677C116.366 129.418 116.213 128.49 115.232 128.386C114.437 129.623 114.037 131.045 113.536 132.662C115.383 132.506 117.065 134.24 118.601 132.356C119.569 131.167 120.326 129.881 119.75 128.269C119.5 127.57 118.553 127.128 117.53 127.095C119.21 129.483 119.198 129.611 117.031 129.677ZM110.21 137.065C112.815 137.253 115.42 137.44 117.95 137.622C118.28 137.062 118.074 136.724 117.816 136.429C116.609 135.047 111.155 134.547 109.719 135.685C109.033 136.228 108.923 136.71 110.21 137.065ZM197.518 243.471C196.19 244.504 194.886 245.571 193.523 246.557C192.833 247.056 192.475 247.514 193.097 248.286C193.652 248.974 194.245 249.045 194.931 248.467C196.217 247.384 197.638 246.455 198.601 245.017C199.176 244.159 199.378 243.312 198.937 242.147C198.436 242.608 198.069 242.946 197.518 243.471ZM188.036 317.84C188.248 318.827 187.59 319.841 188.035 320.851C191.346 319.73 191.418 318.49 188.441 314.521C187.749 315.478 188.12 316.544 188.036 317.84Z" fill="#1E1E1E"/>
<path d="M263.417 288.986C265.012 288.981 266.43 288.981 267.968 288.981C268.042 285.075 269.104 281.783 272.475 279.7C274.945 278.174 277.52 277.283 280.371 278.745C281.604 279.377 282.356 279.042 282.946 277.72C285.252 272.553 289.506 269.769 294.932 269.324C299.107 268.982 301.975 271.724 303.788 275.276C304.767 277.195 305.33 278.829 307.939 279.537C311.077 280.387 312.339 283.522 311.868 286.916C311.653 288.462 312.129 289.087 313.718 288.973C317.933 288.672 321.773 289.937 325.407 291.943C326.495 292.544 327.435 293.357 328.23 294.315C330.267 296.771 330.249 298.845 328.334 301.338C325.903 304.504 322.454 305.702 318.754 305.813C308.291 306.124 297.823 306.142 287.356 305.702C280.029 305.395 272.729 304.814 265.445 303.992C262.739 303.687 260.221 302.979 258.178 301.054C254.842 297.91 255.15 293.252 258.944 290.705C260.228 289.844 261.639 289.136 263.417 288.986ZM288.733 274.054C286.189 276.285 283.608 278.488 284.781 282.48C284.931 282.989 284.725 283.555 284.173 283.794C283.537 284.068 283.283 283.566 282.96 283.132C280.856 280.304 276.159 279.718 273.192 281.888C270.313 283.995 269.924 287.696 272.249 290.825C272.522 291.191 272.829 291.567 272.564 292.06C272.342 292.472 271.93 292.578 271.566 292.369C270.442 291.721 269.113 292.016 267.978 291.565C265.756 290.683 263.638 291.074 261.536 291.893C258.433 293.101 257.669 296.81 259.949 299.208C261.989 301.352 264.862 301.497 267.348 301.676C273.043 302.086 278.73 302.777 284.429 302.955C294.824 303.279 305.23 303.341 315.631 303.306C318.508 303.296 321.505 303.261 324.209 301.862C325.788 301.045 326.992 299.941 327.187 298.054C327.381 296.169 326.329 294.842 324.861 294.079C319.745 291.419 314.391 289.984 308.591 291.58C307.606 291.851 306.244 292.351 305.823 291.143C305.355 289.798 306.945 289.838 307.743 289.503C309.817 288.634 310.677 286.661 309.837 284.429C308.893 281.917 306.956 280.915 304.743 281.598C303.638 281.939 302.828 282.674 301.875 283.212C301.333 283.518 300.797 283.823 300.329 283.194C299.895 282.611 300.195 282.059 300.631 281.628C301.043 281.22 301.491 280.82 301.991 280.534C303.008 279.954 303.087 279.21 302.598 278.243C302.306 277.666 302.112 277.04 301.857 276.443C300.598 273.495 297.92 271.774 294.801 271.905C292.662 271.994 290.796 272.878 288.733 274.054Z" fill="#1E1E1E"/>
<path d="M51.9506 62.002C53.389 61.8508 54.5479 62.2394 55.6157 62.7573C56.3768 62.3026 56.5639 61.5822 56.881 60.9614C59.0397 56.7348 62.7834 54.6139 67.2278 54.3737C70.6075 54.191 73.1597 56.4406 74.6825 59.5058C75.5014 61.1541 76.0184 62.6116 78.2919 63.2123C80.5038 63.7967 81.9331 65.9682 81.7117 68.5471C81.5394 70.555 82.2605 71.0278 84.2235 71.0714C87.9182 71.1536 91.3543 72.4727 94.3015 74.6743C97.6981 77.2114 97.7241 80.098 94.6432 83.0348C92.9884 84.6122 91.0157 85.4704 88.7266 85.6817C80.938 86.4005 73.1286 86.1002 65.3378 85.975C57.8925 85.8553 50.4541 85.2177 43.0168 84.742C40.7962 84.6 38.7169 83.8416 36.7097 82.8667C34.399 81.7444 33.2305 79.7894 33.3312 77.3928C33.4356 74.9077 34.9262 73.0584 37.2403 71.9815C39.2972 71.0244 41.4435 70.7137 43.8051 71.2583C44.1355 66.0551 46.1176 62.3924 51.9506 62.002ZM61.2095 59.0552C59.393 60.9533 57.1828 62.6805 58.3954 65.8473C58.5528 66.2582 58.282 66.6159 57.8782 66.7709C57.3281 66.9822 56.7616 66.8412 56.4948 66.3589C55.5999 64.7408 53.9368 64.6973 52.4602 64.3538C50.6908 63.9422 48.0981 65.2426 47.1171 66.8762C45.7901 69.0861 45.8681 70.6328 47.4365 72.5623C47.8147 73.0276 48.2803 73.475 47.8489 74.0956C47.4264 74.7035 46.853 74.4508 46.2677 74.2787C44.3898 73.7268 42.4572 73.4864 40.5041 73.5697C37.9338 73.6793 36.1677 74.9843 35.8316 76.9259C35.5171 78.7429 36.7522 80.4085 39.3042 81.2008C43.6232 82.5417 48.1615 82.2342 52.5936 82.6496C58.2685 83.1816 63.9931 83.2614 69.6994 83.3618C76.1308 83.4749 82.5748 83.7924 88.9918 83.0553C90.9869 82.8261 92.9411 82.136 93.8493 80.2331C95.0082 77.8051 94.088 76.2174 90.283 74.7844C86.3084 73.2876 82.188 72.4407 77.9192 73.7722C77.1948 73.9982 76.2038 74.0445 75.9864 73.0316C75.7781 72.0615 76.7159 71.8963 77.3874 71.783C78.9293 71.5228 79.4299 70.393 79.471 69.1259C79.5179 67.6819 79.1264 66.2815 77.8222 65.3633C76.7062 64.5776 75.6213 64.8036 74.5609 65.4959C74.1804 65.7443 73.7904 65.9806 73.426 66.2511C72.7451 66.7564 71.9858 67.1293 71.3807 66.3017C70.7768 65.4758 71.5951 64.8929 72.1266 64.5697C73.6233 63.6597 73.4386 62.446 72.8825 61.1838C72.3031 59.8687 71.4534 58.7538 70.2746 57.8526C68.1049 56.1941 65.4269 56.3953 61.2095 59.0552Z" fill="#1E1E1E"/>
<path d="M361.21 171.651C363.844 171.893 365.82 172.986 367.187 175.083C368.094 176.474 368 177.905 367.171 179.303C365.14 182.73 361.838 184.329 358.145 184.748C349.532 185.725 340.873 185.098 332.256 184.679C328.836 184.513 325.261 184.242 321.967 182.889C321.609 182.742 321.248 182.589 320.914 182.394C318.768 181.135 317.119 179.33 317.241 176.808C317.364 174.254 319.139 172.557 321.341 171.251C324.47 169.394 327.862 169.749 331.217 169.848C332.509 169.886 333.049 169.688 333.489 168.279C335.117 163.069 338.896 160.172 344.214 159.325C349.261 158.522 354.631 162.024 356.717 167.349C357.187 168.55 357.617 169.768 358.11 171.097C359.068 171.177 360.128 171.083 361.21 171.651ZM356.164 182.599C357.181 182.388 358.189 182.095 359.217 181.986C360.826 181.814 362.229 181.178 363.476 180.225C364.691 179.297 365.878 178.087 365.39 176.478C364.852 174.706 363.257 174.057 361.425 173.85C358.957 173.573 356.512 173.559 354.052 173.864C353.438 173.94 352.603 174.111 352.417 173.251C352.207 172.282 353.049 172.096 353.753 171.938C354.607 171.747 355.344 171.68 355.181 170.377C354.708 166.594 351.332 162.604 347.82 161.898C343.372 161.004 338.619 162.972 336.663 166.518C335.019 169.499 335.169 169.904 338.359 171.097C338.481 171.143 338.612 171.178 338.716 171.251C339.292 171.653 339.702 172.184 339.406 172.896C339.079 173.684 338.492 173.289 337.924 173.132C334.59 172.212 331.18 171.62 327.739 172.067C325.721 172.329 323.619 172.613 321.849 173.869C320.659 174.715 319.883 175.75 319.948 177.273C320.013 178.796 320.76 179.838 322.192 180.367C322.92 180.636 323.661 180.869 324.397 181.117C328.455 182.481 332.745 182.181 336.905 182.587C343.165 183.199 349.512 182.918 356.164 182.599Z" fill="#1E1E1E"/>
<path d="M37.3795 228.877C35.7301 223.967 38.8461 219.476 44.0806 219.06C46.465 218.871 48.8477 218.329 51.2585 218.913C52.1401 219.126 52.5351 218.639 52.7166 217.787C53.9177 212.146 57.9016 209.332 63.1388 208.339C68.085 207.4 71.8289 209.798 74.5167 213.849C75.5486 215.404 76.5801 217.017 76.818 218.956C76.9353 219.912 77.5115 220.161 78.423 220.264C80.4858 220.498 82.5314 220.902 84.3692 221.954C87.2546 223.605 87.8483 226.558 85.8703 229.226C83.877 231.915 80.9995 233.274 77.881 233.605C71.4809 234.284 65.0401 234.313 58.6049 233.802C56.5983 233.643 54.5577 233.879 52.5572 233.684C48.7107 233.308 44.7894 233.328 41.1189 231.821C39.6339 231.212 38.4105 230.295 37.3795 228.877ZM56.8787 214.121C56.4661 214.62 56.0894 215.124 55.8054 215.73C54.3525 218.831 54.3329 218.819 57.5052 220.049C57.7437 220.141 57.9929 220.254 58.1798 220.422C58.6607 220.853 58.8521 221.399 58.5288 221.997C58.2073 222.591 57.7301 222.409 57.1822 222.271C55.6098 221.874 54.0272 221.411 52.4227 221.271C48.7241 220.949 45.0376 220.866 41.5464 222.585C39.871 223.41 39.0075 224.663 39.1759 226.447C39.3556 228.35 40.6886 229.448 42.4356 229.905C47.1732 231.144 52.076 231.127 56.9082 231.576C62.6003 232.104 68.3339 232.085 74.0364 231.603C77.1846 231.337 80.4579 231.215 83.0238 228.936C84.0371 228.036 85.2843 226.964 84.8001 225.529C84.2871 224.009 82.8356 223.159 81.2143 222.83C80.7729 222.741 80.3065 222.752 79.8518 222.755C77.51 222.769 75.1681 222.791 72.8264 222.822C72.2956 222.83 71.7039 222.911 71.5934 222.209C71.4766 221.466 72.0101 221.185 72.6312 221.048C73.3142 220.898 74.0825 221.005 74.7213 220.258C73.7377 216.211 72.1703 212.462 67.6744 211.129C63.6753 209.942 60.1211 211.134 56.8787 214.121Z" fill="#1E1E1E"/>
<path d="M361.575 50.5239C364.651 52.9247 366.674 55.8672 367.526 59.5497C368.132 62.1675 366.012 66.1403 363.127 67.6197C359.377 69.5421 355.349 70.1235 351.21 69.4514C350.034 69.2604 349.263 69.4409 348.418 70.2193C346.987 71.5371 345.458 72.7487 343.959 73.9908C343.463 74.4017 342.941 74.9175 342.236 74.4415C341.584 74.0011 341.707 73.3168 341.827 72.6681C342.088 71.259 343.551 69.9161 342.442 68.4514C341.479 67.1788 339.689 67.5723 338.316 67.004C335.212 65.7194 332.548 63.9903 330.939 60.9882C329.195 57.733 329.68 54.5921 332.212 51.8905C334.119 49.8549 336.469 48.4905 339.086 47.5906C347.008 44.8671 354.527 45.3846 361.575 50.5239ZM335.458 62.7985C336.857 63.9085 338.457 64.6759 340.172 65.0386C342.789 65.5922 345.522 65.8564 345.097 69.5122C345.824 69.6026 346.125 69.2826 346.337 69.0001C347.892 66.9353 349.832 66.6157 352.353 66.9692C355.91 67.468 359.503 67.2077 362.664 65.0672C364.359 63.9197 365.234 62.4118 365.123 60.3042C364.911 56.2736 362.32 53.8623 359.332 51.7833C355.597 49.1848 351.346 48.6599 346.89 48.8091C343.112 48.9357 339.609 49.7929 336.298 51.6094C331.04 54.4952 331.666 60.1184 335.458 62.7985Z" fill="#1E1E1E"/>
<path d="M146.884 82.1151C148.253 85.4374 148.408 88.5731 146.311 91.4839C143.939 94.7764 140.5 95.9842 136.693 95.2706C132.988 94.5761 130.525 95.65 128.87 98.9392C128.471 99.7316 127.741 99.9902 127.175 99.2034C126.235 97.8953 125.038 96.5726 124.999 94.9219C124.929 91.9675 123.578 90.1809 121.17 88.4718C114.703 83.88 115.205 74.9598 121.96 71.3951C125.418 69.5707 128.987 69.4322 132.682 70.9349C137.89 73.0526 142.493 75.9454 145.947 80.4636C146.298 80.9224 146.536 81.4678 146.884 82.1151ZM139.696 77.2931C135.583 74.3858 131.207 72.2434 125.974 72.7544C121.308 73.21 117.804 77.5446 119.261 82.1231C120.082 84.7009 121.727 86.5172 124.005 87.8136C125.841 88.8588 126.963 90.2196 126.882 92.487C126.84 93.6508 126.908 94.9361 128.036 95.9017C128.397 95.5891 128.679 95.3367 128.97 95.0941C131.141 93.2816 133.281 91.5547 136.464 92.7878C137.371 93.1395 138.534 92.9629 139.561 92.855C144.398 92.3468 146.281 87.9727 145.279 84.6648C144.328 81.5297 142.335 79.3942 139.696 77.2931Z" fill="#1E1E1E"/>
<path d="M198.351 124.2C195.988 125.974 193.406 126.068 190.787 125.721C187.426 125.275 184.796 126.374 182.839 129.136C182.275 129.933 181.571 131.006 180.536 130.276C179.447 129.508 180.163 128.443 180.74 127.528C182.77 124.311 185.558 122.517 189.471 122.67C191.095 122.733 192.727 122.736 194.35 122.649C196.128 122.553 197.532 121.713 197.947 119.909C198.306 118.342 198.174 116.787 196.597 115.753C194.905 114.643 193.332 114.763 191.736 115.984C191.019 116.533 190.276 118.052 189.246 116.654C188.366 115.46 189.552 114.594 190.423 113.96C193.967 111.38 196.472 111.745 199.449 114.622C202.124 117.208 201.585 121.055 198.351 124.2Z" fill="#1E1E1E"/>
<path d="M179.719 135.125C177.94 136.461 176.303 136.276 175.334 134.755C174.6 133.601 175.134 131.823 176.437 131.084C177.81 130.305 179.538 130.984 180.302 132.532C180.791 133.523 180.377 134.265 179.719 135.125Z" fill="#1E1E1E"/>
<path d="M288.17 61.052C287.154 58.5258 286.263 58.2718 284.332 59.7656C283.698 60.2564 282.973 61.1362 282.196 60.1242C281.548 59.2796 281.949 58.3996 282.674 57.6961C284.088 56.3241 285.731 55.7034 287.654 56.3741C289.756 57.1076 291.092 59.0725 291.138 61.3057C291.201 64.3967 288.927 67.1319 285.248 67.432C282.513 67.655 281.248 69.2372 280.01 71.1539C279.064 72.6185 278.516 74.3406 277.153 75.5343C276.682 75.9466 276.908 76.4868 276.857 76.9885C276.753 78.0035 276.196 78.7313 275.125 78.7442C273.969 78.7581 273.367 77.9363 273.144 76.9244C272.925 75.9268 273.537 75.1931 274.442 75.0778C275.61 74.9293 275.743 74.235 276.078 73.3144C276.969 70.8722 278.266 68.615 279.935 66.5969C281.241 65.0183 283.087 64.6582 284.97 64.3485C286.755 64.0549 288.29 63.4538 288.17 61.052Z" fill="#1E1E1E"/>
<path d="M197.562 75.1937C195.796 76.0693 195.194 75.7382 195.131 74.0353C194.931 68.6232 197.386 64.6645 202.611 62.744C206.759 61.2195 206.79 59.5792 206.084 56.4446C205.643 54.4903 203.873 53.4405 202.134 53.7142C200.304 54.0022 199.086 55.3976 198.983 57.3782C198.933 58.3472 199.498 59.8038 197.869 59.7365C196.265 59.6702 196.152 58.0729 196.16 56.8933C196.177 54.5554 198.448 51.7742 200.725 51.0442C203.352 50.2024 205.644 50.8564 207.462 52.859C211.432 57.2315 210.224 63.0599 204.639 64.9117C199.499 66.616 198.28 70.5135 197.562 75.1937Z" fill="#1E1E1E"/>
<path d="M196.396 80.6121C195.58 81.7282 194.675 82.0584 193.642 81.2592C192.814 80.6186 192.674 79.7402 193.187 78.8197C193.694 77.9085 194.579 77.8705 195.411 78.1179C196.587 78.4675 196.76 79.3936 196.396 80.6121Z" fill="#1E1E1E"/>
<path d="M254.201 96.0014C254.903 94.8234 254.812 93.7983 253.82 93.1109C252.727 92.3538 251.479 92.4156 250.302 93.0353C249.796 93.3017 249.445 93.8454 248.788 93.8488C248.305 93.8514 247.871 93.759 247.62 93.3054C247.403 92.9142 247.578 92.5691 247.783 92.2169C248.876 90.3392 251.918 89.2391 254.173 89.9194C256.301 90.5612 258.037 93.1194 257.834 95.3139C257.629 97.5318 255.567 99.4883 253.365 99.7349C251.212 99.976 248.969 99.1939 246.895 100.549C245.536 101.436 244.488 102.455 243.789 103.919C242.98 105.617 242.081 107.274 241.157 108.913C240.873 109.418 240.372 109.866 239.698 109.619C239.033 109.376 238.848 108.728 239.05 108.159C240.422 104.297 241.78 100.437 245.371 97.9093C246.995 96.7663 248.765 96.8004 250.592 96.74C251.774 96.7009 253.094 97.2139 254.201 96.0014Z" fill="#1E1E1E"/>
<path d="M235.412 114.481C234.915 113.445 234.89 112.587 235.73 111.894C236.214 111.495 236.776 111.371 237.367 111.644C238.039 111.953 238.607 112.375 238.712 113.18C238.816 113.983 238.448 114.521 237.778 114.949C236.893 115.515 236.186 115.247 235.412 114.481Z" fill="#1E1E1E"/>
<path d="M254.938 168.618C252.54 168.144 250.324 166.883 248.066 168.609C247.578 168.982 246.907 168.746 246.487 168.248C245.984 167.652 246.128 167.049 246.582 166.48C247.599 165.205 248.984 164.717 250.545 164.769C252.235 164.825 253.895 165.111 255.521 165.617C257.448 166.216 259.834 164.938 260.364 163.073C260.653 162.056 260.518 161.158 259.626 160.446C258.707 159.713 257.95 160.156 257.15 160.67C256.569 161.043 255.983 162.112 255.238 161.064C254.568 160.121 254.998 159.219 255.855 158.512C257.733 156.96 259.785 156.922 261.711 158.425C263.525 159.839 264.152 162.352 263.187 164.341C261.532 167.755 259.173 169.012 254.938 168.618Z" fill="#1E1E1E"/>
<path d="M242.485 172.613C241.083 172.446 240.318 171.692 240.233 170.461C240.164 169.453 240.834 168.729 241.744 168.406C242.75 168.048 243.482 168.672 244.093 169.388C244.714 170.115 244.473 170.832 243.98 171.517C243.632 172.001 243.202 172.385 242.485 172.613Z" fill="#1E1E1E"/>
<path d="M298.544 133.001C299.595 132.265 299.997 131.343 299.935 130.23C299.883 129.298 300.253 128.199 299.101 127.635C297.983 127.088 297.278 127.758 296.592 128.527C296.068 129.114 295.443 129.091 294.868 128.588C294.243 128.041 294.478 127.427 294.794 126.819C295.454 125.545 297.809 124.208 299.004 124.435C300.785 124.773 302.544 126.511 302.814 128.2C303.617 133.222 301.314 136.22 295.683 136.615C292.781 136.819 291.002 138.152 289.396 140.226C288.917 140.845 288.464 141.977 287.458 141.321C286.471 140.677 286.689 139.59 287.316 138.721C289.22 136.079 291.287 133.736 294.996 133.805C296.127 133.827 297.268 133.324 298.544 133.001Z" fill="#1E1E1E"/>
<path d="M286.44 144.609C285.665 145.672 284.752 146.053 283.665 145.593C282.924 145.28 282.459 144.602 282.363 143.8C282.25 142.856 282.852 142.254 283.58 141.776C284.248 141.339 284.933 141.357 285.545 141.855C286.369 142.528 287.075 143.279 286.44 144.609Z" fill="#1E1E1E"/>
<path d="M144.454 175.304C142.728 175.896 141.779 175.36 141.41 173.756C141.135 172.557 142.227 170.676 143.324 170.579C144.676 170.459 145.055 171.479 145.314 172.508C145.569 173.523 145.168 174.401 144.454 175.304Z" fill="#1E1E1E"/>
<path d="M144.418 162.31C145.215 162.008 145.897 161.946 146.174 162.735C146.386 163.34 145.846 163.695 145.366 163.885C143.819 164.497 144.397 165.83 144.393 167.022C143.101 167.191 142.309 166.703 141.89 165.624C141.49 164.595 142.03 163.88 142.817 163.312C143.288 162.973 143.796 162.686 144.418 162.31Z" fill="#1E1E1E"/>
<path d="M155.868 165.52C155.567 166.1 155.359 166.651 154.686 166.47C154.171 166.331 154.055 165.845 153.995 165.395C153.901 164.68 153.766 164.012 153.251 163.441C152.867 163.014 152.868 162.476 153.273 162.029C153.77 161.481 154.344 161.681 154.866 161.979C156.271 162.78 156.163 164.068 155.868 165.52Z" fill="#1E1E1E"/>
<path d="M145.166 157.542C146.687 157.183 146.983 157.883 146.448 158.963C146.118 159.629 145.511 160.19 144.937 160.693C144.467 161.106 143.834 161.556 143.261 160.832C142.777 160.219 143.02 159.602 143.51 159.095C144.002 158.585 144.531 158.111 145.166 157.542Z" fill="#1E1E1E"/>
<path d="M152.899 166.122C152.487 166.702 152.133 167.153 151.768 167.595C151.27 168.197 150.688 168.59 149.985 167.939C149.321 167.323 149.588 166.651 150.06 166.057C150.377 165.658 150.751 165.302 151.119 164.947C151.541 164.541 152.01 164.112 152.636 164.462C153.274 164.819 153.151 165.415 152.899 166.122Z" fill="#1E1E1E"/>
<path d="M349.433 54.9452C349.863 54.4202 350.477 54.0701 350.006 53.3998C349.52 53.2072 349.253 53.5329 348.948 53.7601C348.4 54.1669 347.79 54.5684 347.292 53.7847C346.884 53.141 347.222 52.5748 347.723 52.0602C348.928 50.8213 350.477 50.6827 351.705 51.7508C353.07 52.9375 353.164 54.1145 351.943 55.6299C350.984 56.8196 349.6 57.7253 349.57 59.5006C349.565 59.8084 349.235 60.0583 348.86 60.0295C348.333 59.989 348.058 59.6026 347.91 59.1677C347.32 57.4354 348.15 56.1707 349.433 54.9452Z" fill="#1E1E1E"/>
<path d="M348.967 61.0425C349.918 61.6642 350.209 62.3862 349.683 63.2674C349.226 64.0347 348.456 63.9158 347.776 63.7046C346.96 63.4515 346.731 62.7522 346.901 61.9899C347.133 60.9512 347.866 60.7062 348.967 61.0425Z" fill="#1E1E1E"/>
<path d="M133.02 85.3848C132.565 86.0632 132.358 86.9924 131.393 86.5216C130.535 86.103 130.836 85.3104 131.043 84.6291C131.445 83.3044 132.291 82.4082 133.613 81.9193C134.468 81.6032 135.259 81.1501 134.637 79.8697C134.331 80.001 134.049 80.0386 133.902 80.1998C133.274 80.8887 132.484 81.4554 131.769 80.6116C130.971 79.6685 131.882 78.9021 132.55 78.3447C133.997 77.1356 136.023 77.5685 137.088 79.222C138.128 80.8365 137.602 82.5901 135.638 83.5597C134.698 84.0237 133.733 84.3779 133.02 85.3848Z" fill="#1E1E1E"/>
<path d="M130.968 87.0661C131.878 87.8688 132.016 88.696 131.298 89.5007C130.83 90.0249 130.14 90.0574 129.516 89.7589C128.763 89.399 128.59 88.6895 128.765 87.9608C129.034 86.8357 129.809 86.601 130.968 87.0661Z" fill="#1E1E1E"/>
</svg>
