<svg width="400" height="400" viewBox="0 0 400 400" fill="none" xmlns="http://www.w3.org/2000/svg">
<path d="M256.477 210.905C256.159 209.094 255.726 207.552 254.631 206.234C252.268 207.049 251.314 208.581 251.325 211.062C251.338 213.816 251.685 216.715 249.778 219.505C247.214 217.872 246.35 215.314 245.477 212.942C244.507 210.306 243.12 209.184 240.152 209.208C234.828 209.249 229.789 207.631 224.892 205.555C223.673 205.039 222.12 203.04 220.979 204.951C219.92 206.725 218.672 209.045 220.383 211.207C223.91 215.664 228.371 218.649 234.136 219.391C234.337 219.416 234.545 219.39 234.745 219.42C235.789 219.573 237.387 219.225 237.344 220.78C237.297 222.519 235.694 222.272 234.51 222.094C228.69 221.217 223.66 218.702 219.699 214.349C216.561 210.899 215.946 210.76 211.803 214.14C235.006 239.354 248.435 268.696 248.872 303.381C248.882 304.189 248.798 305.035 247.789 305.336C246.676 305.123 246.861 304.206 246.745 303.432C245.603 295.826 245.395 288.112 243.847 280.545C240.727 265.291 235.153 251.029 226.9 237.84C222.801 231.29 218.275 225.034 213.008 219.351C212.476 218.777 212.137 217.952 211.142 217.773C198.705 233.362 181.894 232.225 164.727 229.678C164.225 230.808 165.144 231.417 165.574 232.126C172.469 243.486 177.468 255.556 180.208 268.627C182.544 279.772 184.191 290.95 184.273 302.342C184.278 303.053 184.267 303.765 184.223 304.474C184.189 305.019 183.93 305.485 183.364 305.582C182.624 305.709 182.252 305.228 182.089 304.58C181.916 303.891 181.696 303.199 181.644 302.497C180.834 291.374 179.668 280.296 177.312 269.38C172.191 245.656 162.245 224.858 141.496 210.664C140.493 209.978 139.411 209.403 138.345 208.816C138.014 208.633 137.611 208.58 137.234 208.464C136.27 209.626 136.7 210.876 136.694 212.044C136.66 218.738 136.576 225.417 134.886 231.97C133.741 236.41 132.891 237.006 128.612 235.624C111.842 230.21 96.8644 221.691 84.0532 209.538C82.3779 207.949 81.0825 207.806 78.9999 208.685C61.4618 216.094 49.8611 229.273 42.3052 246.332C37.0796 258.129 34.5877 270.53 34.0906 283.455C33.8604 289.439 33.8023 295.418 33.6628 301.399C33.6403 302.362 33.9318 303.709 32.4307 303.707C31.1889 303.705 31.3272 302.465 31.2331 301.595C30.0611 290.754 30.6282 279.896 32.4433 269.245C34.5112 257.111 38.5384 245.496 45.1223 234.92C55.6055 218.08 70.3314 207.114 89.7076 202.499C90.9982 202.192 92.6247 202.933 93.5691 201.481C93.5735 200.419 92.9138 200.239 92.1451 200.219C88.4422 200.119 84.918 198.661 81.1853 201.692C78.0903 204.205 72.7583 202.496 69.6282 199.09C68.4662 197.826 67.6525 197.661 66.0335 198.162C59.8977 200.059 54.794 197.424 52.5776 191.242C52.1178 189.96 51.5484 189.542 50.334 189.284C44.8668 188.122 42.4171 185.077 42.4562 179.498C42.4647 178.286 42.0468 177.706 40.969 177.202C34.3533 174.11 32.676 169.122 35.8488 162.224C28.549 155.011 28.4635 149.711 35.5474 142.697C35.6393 141.905 35.0735 141.42 34.6659 140.85C29.6246 133.792 33.1627 124.785 41.7086 122.986C43.2273 122.666 44.2472 122.246 44.3978 120.353C45.0641 111.986 51.2666 107.388 59.5385 108.972C60.0203 109.064 60.5093 109.119 61.035 109.197C62.2332 106.048 63.4521 103.112 66.5647 101.384C69.9916 99.4804 73.292 99.3254 76.6638 101.337C77.8733 102.058 78.7584 102.527 79.9338 100.923C84.6691 94.4601 92.6765 94.6741 97.2342 101.242C97.6316 101.814 97.9987 102.408 98.474 103.136C99.1277 102.589 99.6506 102.148 100.178 101.712C106.574 96.4193 115.932 99.4026 117.923 107.508C118.54 110.018 119.163 110.911 122.109 110.356C128.606 109.131 134.341 115.007 133.393 121.565C133.189 122.978 133.539 123.582 134.724 124.146C139.015 126.188 140.872 129.551 139.957 134.291C139.737 135.428 140.346 136.21 140.864 137.089C142.876 140.497 143.091 143.99 141.028 147.439C140.251 148.737 139.863 149.808 140.602 151.348C141.647 153.525 140.546 155.463 139.414 157.31C141.397 155.801 142.6 153.916 141.549 151.332C141.025 150.042 141.095 149.137 141.921 147.994C144.443 144.502 144.447 140.864 142.126 137.232C140.699 134.998 140.941 130.629 142.928 128.881C150.455 122.255 159.245 118.138 169.318 119.064C181.067 120.143 190.737 125.811 197.688 135.507C205.26 146.07 207.402 157.811 204.769 170.513C204.216 173.179 203.961 175.933 203.856 178.657C203.721 182.121 203.457 185.518 202.384 188.855C201.504 191.593 202.581 194.421 202.167 197.291C200.428 209.366 191.704 218.401 179.74 219.982C175.363 220.56 171.387 219.033 167.273 217.178C169.762 221.468 181.255 222.077 188.346 218.696C195.609 215.233 199.962 209.433 202.716 201.817C207.056 203.73 208.629 207.569 210.805 211.105C214.062 209.671 217.94 209.156 218.061 204.316C218.087 203.259 218.729 202.277 219.539 201.397C221.489 199.281 220.942 197.48 218.151 196.44C213.636 194.757 209.378 192.707 206.199 188.885C204.753 187.147 204.365 185.401 204.501 183.047C204.964 175.063 208.035 167.432 207.306 159.273C206.814 153.764 205.967 148.385 203.887 143.281C203.019 141.149 203.451 139.697 204.887 138.092C209.347 133.111 214.926 130.175 221.439 129.149C236.19 126.825 248.881 130.968 259.385 141.649C259.659 141.928 260.021 142.12 260.298 142.321C261.714 142.128 262.096 140.957 262.736 140.096C277.401 120.38 307.963 121.532 321.047 142.351C327.011 151.841 330.08 162.216 330.036 173.47C330.021 177.534 330.077 181.599 330.042 185.663C329.958 195.554 326.609 203.514 316.919 207.699C316.672 207.806 316.517 208.127 316.04 208.658C348.117 224.589 364.569 251.776 371.318 285.691C372.5 291.635 374.428 297.765 372.817 304.125C370.816 303.698 370.721 302.383 370.66 301.204C370.313 294.501 368.974 287.936 367.511 281.437C362.23 257.971 352.106 237.259 332.72 222.02C331.716 221.231 330.86 220.131 329.114 220.016C329.324 225.324 329.171 230.548 328.203 235.727C327.545 239.246 326.234 242.53 324.961 245.831C324.343 247.435 323.157 247.691 321.484 247.166C318.113 246.109 314.761 245.042 311.855 243.122C310.76 244.213 311.423 245.076 311.461 245.929C311.811 253.794 313.052 261.713 308.976 269.171C307.403 272.048 309.593 274.882 310.248 277.632C312.192 285.796 314.226 293.923 314.871 302.324C314.925 303.029 315.01 303.736 315.141 304.43C315.369 305.635 315.823 307.208 314.253 307.489C312.654 307.777 312.44 305.957 312.342 304.89C312.045 301.653 311.464 298.472 310.969 295.267C307.745 274.393 301.841 254.52 289.228 237.194C281.63 226.757 271.977 218.648 260.452 212.799C260.109 212.625 259.709 212.566 259.372 212.464C257.572 214.011 257.455 217.218 254.054 217.244C254.181 214.811 256.402 213.358 256.477 210.905ZM132.928 156.104C132.928 156.104 132.939 156.127 132.831 155.659C131.904 153.669 132.916 149.993 128.581 151.018C118.955 153.294 109.169 153.986 99.3024 153.779C98.3242 153.759 97.2755 153.425 96.3976 154.264C96.2061 155.425 96.8956 156.4 97.0827 157.468C97.7416 161.227 98.9116 164.947 97.8084 168.852C96.8064 172.398 94.7519 173.343 91.4402 171.597C90.2765 170.984 89.1367 170.314 87.9345 169.788C86.0926 168.981 85.0443 169.766 84.6006 171.619C83.9924 174.16 85.0253 175.656 87.7607 176.254C89.1419 176.556 90.7075 176.8 91.2856 178.288C91.9172 179.914 89.9085 179.763 89.0635 180.634C92.4914 182.373 95.2264 184.454 95.6997 188.294C96.1956 192.317 96.5046 196.352 96.6165 200.418C96.6991 203.42 95.4872 204.701 92.6787 204.973C90.1073 205.222 87.5504 205.594 85.2109 206.828C85.6096 208.189 86.5798 208.816 87.4368 209.495C90.9332 212.267 94.3705 215.127 97.999 217.717C107.314 224.366 117.577 229.148 128.363 232.898C130.974 233.805 132.092 233.158 132.469 230.433C133.161 225.415 133.732 220.407 134.084 215.341C134.527 208.972 133.535 204.182 126.121 203.078C124.245 202.798 123.775 201.05 123.818 199.27C123.859 197.629 124.634 196.692 126.24 196.228C132.107 194.535 134.92 190.28 135.873 184.515C137.484 174.766 135.739 165.369 132.928 156.104ZM298.675 247.428C302.022 253.383 304.472 259.754 307.197 266.716C309.929 258.904 309.674 251.583 308.524 244.403C306.853 233.969 302.019 224.638 297.262 215.312C291.365 203.748 285.582 192.138 284.38 178.87C283.317 167.136 285.182 155.994 290.879 145.67C293.851 140.283 298.594 137.191 304.961 138.008C310.03 138.659 313.894 141.72 317.062 145.61C321.402 150.939 324.085 157.149 326.462 163.536C325.635 158.118 324.078 152.948 321.75 147.988C310.631 124.307 280.103 122.872 265.697 140.202C263.42 142.942 261.598 145.477 264.393 148.974C265.173 149.95 265.278 151.442 265.806 152.647C266.499 154.226 266.262 155.457 264.615 156.146C263.378 156.664 263.234 157.507 263.637 158.598C265.44 163.476 266.224 168.58 267.137 173.67C268.478 181.144 267.976 188.398 265.131 195.46C263.956 198.377 261.912 200.611 259.426 202.451C258.214 203.348 256.105 203.669 257.515 205.959C258.383 207.369 258.437 209.253 260.369 210.033C266.565 212.532 271.895 216.425 276.888 220.777C280.193 223.658 283.35 226.709 286.878 229.965C284.373 221.216 280.593 213.459 277.474 205.448C274.26 197.195 271.509 188.811 271.963 179.814C272.124 176.633 272.391 173.277 274.467 170.468C276.118 171.41 275.696 172.549 275.42 173.604C273.619 180.491 274.619 187.245 276.354 193.966C278.416 201.952 281.82 209.438 285.025 216.989C289.115 226.624 290.744 237.345 297.656 245.742C297.975 246.13 298.183 246.608 298.675 247.428ZM262.75 164.875C262.28 162.395 261.762 159.932 260.334 157.695C259.151 157.847 258.025 157.88 256.957 158.148C248.167 160.353 239.218 161.391 230.196 161.985C225.336 162.306 224.815 161.826 224.195 157.122C223.855 154.546 224.497 151.844 223.248 149.361C222.903 151.075 222.68 152.785 222.703 154.492C222.786 160.478 223.106 166.454 224.146 172.361C224.448 174.076 224.474 175.686 222.974 176.783C221.316 177.995 219.907 176.815 218.524 175.991C217.827 175.575 217.168 175.096 216.481 174.664C215.288 173.915 214.011 173.527 212.811 174.512C211.666 175.453 211.626 176.74 211.951 178.135C212.648 181.124 214.192 183.62 216.54 185.492C221.196 189.203 223.018 194.199 223.292 199.879C223.379 201.674 223.996 202.778 225.641 203.315C230.451 204.885 235.239 206.837 240.39 206.526C244.462 206.28 246.638 208.095 247.775 211.724C247.895 212.107 247.88 212.719 248.586 212.684C248.141 206.631 251.034 202.961 256.535 200.868C259.498 199.74 261.609 197.455 262.634 194.423C265.895 184.777 265.17 175.072 262.75 164.875ZM287.879 184.445C287.907 184.749 287.907 185.058 287.965 185.355C290.387 197.681 296.775 208.37 302.083 219.504C302.357 220.081 302.816 220.483 303.451 220.616C306.954 221.35 310.343 220.944 313.059 218.578C315.34 216.59 315.385 213.982 314.297 211.1C313.064 207.828 313.792 206.772 316.95 205.137C321.552 202.754 324.886 199.301 326.264 194.101C328.383 186.108 327.377 178.25 325.734 170.345C324.886 166.262 323.216 163.426 318.678 162.638C316.788 162.31 315.041 160.889 313.346 159.786C311.604 158.653 310.004 157.301 308.219 155.952C307.52 157.052 307.012 157.921 306.438 158.745C302.071 165.009 297.093 170.352 288.636 170.319C286.896 170.313 286.758 171.439 286.71 172.766C286.574 176.538 286.815 180.266 287.879 184.445ZM178.969 197.578C189.988 202.008 198.747 196.752 200.602 184.963C201.737 177.751 200.39 170.856 199.013 163.911C198.204 159.83 196.794 155.917 195.249 152.064C194.488 150.166 193.381 148.847 190.891 149.248C187.799 149.745 184.647 149.875 181.52 150.148C172.684 150.92 167.378 155.172 165.146 164.234C161.69 178.271 166.495 191.23 178.969 197.578ZM324.855 238.541C326.559 232.908 325.933 227.108 326.235 221.362C326.446 217.37 324.402 215.813 320.444 214.366C322.672 218.34 321.1 220.547 317.979 222.072C317.901 222.11 317.851 222.23 317.812 222.322C315.895 226.798 311.585 226.069 307.989 226.651C306.764 226.849 305.658 227.042 306.202 228.191C308.764 233.601 308.794 240.432 316.273 242.964C322.789 245.17 322.795 245.681 324.855 238.541ZM135.64 192.706C133.548 196.226 129.774 197.68 126.266 199.706C128.222 201.997 130.833 201.823 132.763 203.008C134.727 204.215 136.396 204.275 138.096 202.385C139.818 200.471 141.626 200.252 143.851 202.178C146.533 204.499 149.692 206.207 153.306 206.915C146.218 203.245 141.111 197.669 137.385 190.35C136.694 191.269 136.285 191.814 135.64 192.706ZM176.898 148.25C181.583 146.619 186.503 146.721 192.013 146.582C189.631 143.117 186.774 141.416 183.506 140.267C182.862 140.041 182.317 140.441 181.844 140.81C178.778 143.196 176.119 145.974 173.953 149.307C174.794 149.003 175.635 148.698 176.898 148.25ZM151.61 189.534C156.397 197.784 165.129 204.809 171.967 205.731C161.999 201.808 154.831 195.006 150.985 185.011C147.205 175.186 147.343 165.254 150.854 155.35C145.522 166.702 145.914 177.961 151.61 189.534ZM79.735 187.382C79.241 184.448 80.6793 182.188 82.8551 179.737C79.5673 181.331 78.1404 184.894 78.8365 188.687C79.4451 192.003 82.4593 194.767 85.738 195.015C88.5836 195.23 90.6956 193.989 91.443 191.661C85.9809 195.953 81.206 194.419 79.735 187.382ZM155.944 146.167C154.498 148.022 153.067 149.887 152.495 152.253C154.076 149.909 155.656 147.565 157.237 145.221C157.139 145.151 157.04 145.081 156.942 145.011C156.679 145.3 156.416 145.59 155.944 146.167Z" fill="black"/>
<path d="M241.2 114.986C236.471 116.846 231.952 118.632 227.372 120.244C225.446 120.923 224.155 121.769 224.361 124.078C224.479 125.401 223.865 126.499 222.454 126.816C214.801 128.531 207.757 131.354 202.889 137.631C201.282 137.482 201.019 136.365 200.531 135.537C197.047 129.622 192.382 124.921 186.182 121.919C183.759 120.746 183.518 119.407 184.646 117.113C188.766 108.737 196.285 105.855 204.734 104.89C214.231 103.806 221.152 107.754 223.418 116.163C223.997 118.313 225.565 117.503 226.875 117.021C230.962 115.519 235.033 113.971 239.109 112.44C240.008 112.102 240.91 111.945 241.644 112.74C242.348 113.502 242.076 114.215 241.2 114.986ZM220.44 120.762C218.194 121.034 216.149 121.753 214.522 123.408C216.711 122.907 219.039 122.759 220.44 120.762Z" fill="black"/>
<path d="M86.282 269.772C83.8633 277.743 81.5888 285.492 80.464 293.544C80.1311 295.927 79.4093 298.256 79.2515 300.698C79.1852 301.723 78.9498 302.959 77.5621 303.266C74.8984 298.683 83.47 263.706 88.0989 261.246C89.2827 264.464 86.7713 266.82 86.282 269.772Z" fill="black"/>
<path d="M124.439 184.195C121.449 187.805 117.875 188.839 114.376 187.261C111.33 185.888 108.715 181.095 109.094 177.608C109.186 176.766 109.381 175.952 110.216 175.588C111.148 175.182 111.734 175.865 112.289 176.465C115.007 179.403 118.287 180.698 122.348 180.459C125.228 180.29 125.56 181.045 124.439 184.195ZM115.265 184.578C117.185 185.481 118.996 185.65 121.106 183.481C117.877 183.213 115.398 182.167 112.885 180.853C112.815 182.728 113.874 183.524 115.265 184.578Z" fill="black"/>
<path d="M127.648 170.521C127.853 173.193 127.92 175.582 124.803 176.254C123.773 176.476 122.648 176.38 122.174 175.282C121.706 174.199 122.51 173.589 123.439 173.257C125.43 172.546 124.763 171.115 124.481 169.73C124.011 167.427 122.852 165.212 123.38 162.201C126.906 164.16 126.746 167.503 127.648 170.521Z" fill="black"/>
<path d="M132.921 156.093C132.64 157.281 132.033 157.97 130.806 157.172C129.603 156.391 127.533 156.513 127.349 154.694C127.198 153.19 128.553 152.963 129.7 153.393C130.915 153.848 132.036 154.566 132.817 155.957C132.939 156.127 132.928 156.104 132.921 156.093Z" fill="black"/>
<path d="M109.499 160.768C108.065 161.231 107.606 160.593 107.744 159.473C107.949 157.817 109.025 156.797 110.5 156.194C111.173 155.919 111.929 155.89 112.43 156.534C112.975 157.236 112.586 157.849 112.048 158.372C111.263 159.135 110.468 159.888 109.499 160.768Z" fill="black"/>
<path d="M131.068 165.511C129.003 165.307 128.653 164.02 128.975 162.48C129.143 161.679 129.95 161.299 130.643 161.789C131.98 162.733 132.36 163.985 131.068 165.511Z" fill="black"/>
<path d="M112.86 165.183C112.98 163.926 113.391 163.175 114.581 163.444C115.496 163.651 115.795 164.412 115.868 165.256C115.932 166.003 115.75 166.739 114.966 166.96C113.699 167.318 113.158 166.501 112.86 165.183Z" fill="black"/>
<path d="M251.642 187.61C250.223 190.484 247.857 191.192 245.196 190.791C242.24 190.346 239.9 188.792 238.784 185.872C238.34 184.711 238.287 183.404 239.279 182.462C240.486 181.314 241.453 182.372 242.494 182.974C244.604 184.192 246.814 185.177 249.332 185.114C250.91 185.074 251.898 185.615 251.642 187.61Z" fill="black"/>
<path d="M251.801 177.309C252.748 175.866 251.986 174.769 251.44 173.734C250.762 172.45 250.485 171.074 250.172 169.697C249.978 168.847 250.055 167.949 251.037 167.722C252.063 167.484 252.362 168.344 252.627 169.158C253.315 171.277 254.258 173.282 255.245 175.283C256.206 177.234 255.138 179.184 253.151 179.407C251.73 179.566 250.92 179.077 251.801 177.309Z" fill="black"/>
<path d="M235.974 163.985C236.578 163.569 236.987 163.262 237.438 163.04C238.67 162.433 240.233 161.22 241.133 162.937C242.08 164.743 239.932 164.933 238.911 165.415C237.47 166.096 236.78 168.359 234.464 167.523C233.968 166.023 234.963 165.106 235.974 163.985Z" fill="black"/>
<path d="M260.212 165.2C258.154 164.53 256.3 163.812 254.477 163.022C253.22 162.477 253.032 161.478 254.118 160.731C255.57 159.73 257.087 160.404 258.295 161.354C259.469 162.277 261.726 162.746 260.212 165.2Z" fill="black"/>
<path d="M241.837 169.003C243.176 169.479 244.807 169.746 244.189 171.35C243.68 172.672 242.274 171.939 241.219 171.717C240.823 171.633 240.424 171.56 240.024 171.502C239.213 171.384 238.268 171.346 238.307 170.225C238.344 169.156 239.302 169.072 240.09 168.947C240.582 168.869 241.099 168.944 241.837 169.003Z" fill="black"/>
<path d="M258.871 167.69C260.847 168.823 260.11 169.65 258.747 170.239C257.565 170.75 256.123 172.249 255.119 170.335C254.465 169.089 255.833 168.425 256.884 168.014C257.434 167.799 258.056 167.767 258.871 167.69Z" fill="black"/>
<path d="M301.773 186.625C302.087 184.484 302.931 183.332 304.723 184.997C307.217 187.314 310.241 187.736 313.387 187.881C314.333 187.925 315.288 187.883 315.669 188.915C316.007 189.832 315.219 190.405 314.696 190.98C312.526 193.361 309.874 194.886 306.635 193.912C303.323 192.916 302.257 190.009 301.773 186.625ZM305.942 189.137C305.844 189.125 305.74 189.088 305.649 189.109C305.56 189.129 305.407 189.238 305.414 189.256C306.203 191.27 307.685 191.574 310.028 191.029C308.481 190.308 307.365 189.788 305.942 189.137Z" fill="black"/>
<path d="M314.455 182.58C313.822 182.184 313.225 181.626 313.539 181.297C316.465 178.224 313.626 175.504 313.078 172.663C312.902 171.751 311.783 170.699 313.215 170.072C314.539 169.493 314.917 170.878 315.37 171.688C316.714 174.095 317.649 176.659 317.82 179.444C317.957 181.665 317.144 182.996 314.455 182.58Z" fill="black"/>
<path d="M299.515 168.402C300.599 166.695 301.911 165.645 303.71 165.318C304.478 165.178 305.151 165.475 305.433 166.235C305.671 166.88 305.401 167.591 304.774 167.73C302.674 168.198 301.7 170.23 300.039 171.182C298.604 170.476 298.875 169.555 299.515 168.402Z" fill="black"/>
<path d="M320.635 164.992C322.795 165.828 324.317 166.867 323.425 169.399C321.632 169.554 320.792 168.183 319.711 167.469C317.922 166.287 318.245 165.25 320.635 164.992Z" fill="black"/>
<path d="M311.002 165.949C308.885 165.18 308.644 163.826 309.667 162.306C310.4 161.217 311.528 161.432 312.208 162.388C313.246 163.845 313.292 165.23 311.002 165.949Z" fill="black"/>
<path d="M319.13 171.64C319.643 170.348 320.41 170.138 321.292 170.851C322.066 171.475 322.126 172.396 321.861 173.308C321.715 173.809 321.368 174.227 320.802 174.171C319.41 174.033 319.063 173.062 319.13 171.64Z" fill="black"/>
<path d="M305.723 172.918C306.229 174.159 306.181 175.102 305.089 175.659C304.473 175.974 303.921 175.612 303.563 175.096C303.016 174.307 302.836 173.412 303.469 172.616C304.167 171.74 304.952 171.726 305.723 172.918Z" fill="black"/>
<path d="M184.563 184.264C186.183 184.736 188.254 184.419 188.374 186.431C188.485 188.283 186.772 189.215 185.283 189.821C182.915 190.783 180.519 190.727 178.36 189.099C176.092 187.389 175.087 185.026 174.924 182.265C174.88 181.517 175.185 180.819 175.955 180.57C176.73 180.321 177.329 180.778 177.81 181.337C179.526 183.329 181.846 183.943 184.563 184.264Z" fill="black"/>
<path d="M190.156 166.699C190.829 168.846 191.485 170.755 192.013 172.7C192.526 174.589 192.069 176.124 190.033 176.812C189.259 177.074 188.38 177.25 187.817 176.462C187.213 175.618 187.652 174.916 188.435 174.455C189.499 173.83 189.267 173.055 188.9 172.125C188.236 170.442 187.645 168.729 187.087 167.008C186.731 165.907 185.873 164.485 187.456 163.844C189.144 163.159 189.168 165.067 189.842 165.924C189.962 166.077 190.005 166.291 190.156 166.699Z" fill="black"/>
<path d="M171.77 162.883C172.461 160.558 174.036 159.375 176.03 158.643C176.637 158.42 177.231 158.426 177.708 158.946C178.093 159.367 178.245 160.026 177.866 160.324C176.227 161.614 174.537 162.848 172.779 163.966C172.36 164.232 171.905 163.632 171.77 162.883Z" fill="black"/>
<path d="M194.128 160.169C192.466 160.201 191.136 159.717 189.945 158.918C188.865 158.193 188.712 157.244 189.894 156.519C191.172 155.736 192.26 156.652 193.223 157.318C194.12 157.938 195.599 158.528 194.128 160.169Z" fill="black"/>
<path d="M192.134 167.019C191.524 165.91 191.661 165.079 192.623 164.577C193.389 164.177 193.936 164.669 194.356 165.291C194.831 165.995 195.124 166.769 194.478 167.475C193.662 168.367 192.897 168.016 192.134 167.019Z" fill="black"/>
<path d="M176.413 167.834C177.149 166.443 178.011 166.292 178.752 167.477C179.258 168.288 179.325 169.41 178.21 169.771C176.844 170.214 176.526 169.116 176.413 167.834Z" fill="black"/>
</svg>
